# RxHandcart
# https://github.com/Iunius118/RxHandcart
# Copyright 2021 Iunius118
# This work is licensed under the MIT License.

#_name handcart_1.obj
#_texture rxhandcart:textures/handcart/handcart_1.png

v -0.250000 0.187500 -0.312500
v 0.250000 0.187500 -0.312500
v 0.250000 0.187500 0.312500
v -0.250000 0.187500 0.312500
v -0.250000 0.125000 0.312500
v 0.250000 0.125000 0.312500
v 0.250000 0.125000 -0.312500
v -0.250000 0.125000 -0.312500
v 0.250000 0.187500 0.312500
v 0.250000 0.187500 -0.312500
v 0.250000 0.125000 -0.312500
v 0.250000 0.125000 0.312500
v -0.250000 0.187500 -0.312500
v 0.250000 0.187500 -0.312500
v 0.250000 0.125000 -0.312500
v -0.250000 0.125000 -0.312500
v -0.250000 0.187500 0.312500
v 0.250000 0.187500 0.312500
v 0.250000 0.125000 0.312500
v -0.250000 0.125000 0.312500
v -0.250000 0.187500 -0.312500
v -0.250000 0.187500 0.312500
v -0.250000 0.125000 0.312500
v -0.250000 0.125000 -0.312500
v 0.250000 0.125000 0.312500
v 0.250000 0.500000 0.312500
v -0.250000 0.500000 0.312500
v -0.250000 0.125000 0.312500
v 0.250000 0.125000 0.375000
v 0.250000 0.500000 0.375000
v -0.250000 0.500000 0.375000
v -0.250000 0.125000 0.375000
v 0.250000 0.125000 0.312500
v 0.250000 0.500000 0.312500
v 0.250000 0.500000 0.375000
v 0.250000 0.125000 0.375000
v -0.250000 0.125000 0.312500
v -0.250000 0.500000 0.312500
v -0.250000 0.500000 0.375000
v -0.250000 0.125000 0.375000
v 0.250000 0.125000 0.312500
v -0.250000 0.125000 0.312500
v -0.250000 0.125000 0.375000
v 0.250000 0.125000 0.375000
v -0.250000 0.500000 0.312500
v 0.250000 0.500000 0.312500
v 0.250000 0.500000 0.375000
v -0.250000 0.500000 0.375000
v 0.250000 0.500000 -0.312500
v 0.250000 0.125000 -0.312500
v -0.250000 0.125000 -0.312500
v -0.250000 0.500000 -0.312500
v 0.250000 0.500000 -0.375000
v 0.250000 0.125000 -0.375000
v -0.250000 0.125000 -0.375000
v -0.250000 0.500000 -0.375000
v 0.250000 0.500000 -0.312500
v 0.250000 0.125000 -0.312500
v 0.250000 0.125000 -0.375000
v 0.250000 0.500000 -0.375000
v -0.250000 0.500000 -0.312500
v -0.250000 0.125000 -0.312500
v -0.250000 0.125000 -0.375000
v -0.250000 0.500000 -0.375000
v 0.250000 0.500000 -0.312500
v -0.250000 0.500000 -0.312500
v -0.250000 0.500000 -0.375000
v 0.250000 0.500000 -0.375000
v -0.250000 0.125000 -0.312500
v 0.250000 0.125000 -0.312500
v 0.250000 0.125000 -0.375000
v -0.250000 0.125000 -0.375000
v 0.312500 0.500000 -0.375000
v 0.312500 0.125000 -0.375000
v 0.312500 0.125000 0.375000
v 0.312500 0.500000 0.375000
v 0.250000 0.500000 -0.375000
v 0.250000 0.125000 -0.375000
v 0.250000 0.125000 0.375000
v 0.250000 0.500000 0.375000
v 0.312500 0.500000 -0.375000
v 0.312500 0.125000 -0.375000
v 0.250000 0.125000 -0.375000
v 0.250000 0.500000 -0.375000
v 0.312500 0.500000 0.375000
v 0.312500 0.125000 0.375000
v 0.250000 0.125000 0.375000
v 0.250000 0.500000 0.375000
v 0.312500 0.500000 -0.375000
v 0.312500 0.500000 0.375000
v 0.250000 0.500000 0.375000
v 0.250000 0.500000 -0.375000
v 0.312500 0.125000 0.375000
v 0.312500 0.125000 -0.375000
v 0.250000 0.125000 -0.375000
v 0.250000 0.125000 0.375000
v -0.312500 0.125000 -0.375000
v -0.312500 0.500000 -0.375000
v -0.312500 0.500000 0.375000
v -0.312500 0.125000 0.375000
v -0.250000 0.125000 -0.375000
v -0.250000 0.500000 -0.375000
v -0.250000 0.500000 0.375000
v -0.250000 0.125000 0.375000
v -0.312500 0.125000 -0.375000
v -0.312500 0.125000 0.375000
v -0.250000 0.125000 0.375000
v -0.250000 0.125000 -0.375000
v -0.312500 0.500000 0.375000
v -0.312500 0.500000 -0.375000
v -0.250000 0.500000 -0.375000
v -0.250000 0.500000 0.375000
v -0.312500 0.125000 0.375000
v -0.312500 0.500000 0.375000
v -0.250000 0.500000 0.375000
v -0.250000 0.125000 0.375000
v -0.312500 0.125000 -0.375000
v -0.312500 0.500000 -0.375000
v -0.250000 0.500000 -0.375000
v -0.250000 0.125000 -0.375000
v 0.312500 0.000000 -0.187500
v 0.312500 0.312500 -0.187500
v 0.375000 0.312500 -0.187500
v 0.375000 0.000000 -0.187500
v 0.312500 0.000000 0.125000
v 0.312500 0.312500 0.125000
v 0.375000 0.312500 0.125000
v 0.375000 0.000000 0.125000
v 0.312500 0.312500 0.125000
v 0.312500 0.312500 -0.187500
v 0.375000 0.312500 -0.187500
v 0.375000 0.312500 0.125000
v 0.312500 0.000000 -0.187500
v 0.312500 0.000000 0.125000
v 0.375000 0.000000 0.125000
v 0.375000 0.000000 -0.187500
v 0.312500 0.000000 -0.187500
v 0.312500 0.312500 -0.187500
v 0.312500 0.312500 0.125000
v 0.312500 0.000000 0.125000
v 0.312500 0.156250 -0.031250
v 0.375000 0.000000 -0.187500
v 0.375000 0.312500 -0.187500
v 0.375000 0.312500 0.125000
v 0.375000 0.000000 0.125000
v 0.375000 0.156250 -0.031250
v -0.312500 0.000000 -0.187500
v -0.312500 0.312500 -0.187500
v -0.375000 0.312500 -0.187500
v -0.375000 0.000000 -0.187500
v -0.312500 0.000000 0.125000
v -0.312500 0.312500 0.125000
v -0.375000 0.312500 0.125000
v -0.375000 0.000000 0.125000
v -0.312500 0.312500 0.125000
v -0.312500 0.312500 -0.187500
v -0.375000 0.312500 -0.187500
v -0.375000 0.312500 0.125000
v -0.312500 0.000000 -0.187500
v -0.312500 0.000000 0.125000
v -0.375000 0.000000 0.125000
v -0.375000 0.000000 -0.187500
v -0.312500 0.000000 -0.187500
v -0.312500 0.312500 -0.187500
v -0.312500 0.312500 0.125000
v -0.312500 0.000000 0.125000
v -0.312500 0.156250 -0.031250
v -0.375000 0.000000 -0.187500
v -0.375000 0.312500 -0.187500
v -0.375000 0.312500 0.125000
v -0.375000 0.000000 0.125000
v -0.375000 0.156250 -0.031250
v -0.250000 0.500000 0.625000
v -0.250000 0.437500 0.625000
v -0.250000 0.437500 0.562500
v -0.250000 0.500000 0.562500
v -0.250000 0.437500 0.625000
v 0.250000 0.437500 0.625000
v 0.250000 0.437500 0.562500
v -0.250000 0.437500 0.562500
v 0.250000 0.500000 0.625000
v 0.250000 0.437500 0.625000
v -0.250000 0.437500 0.625000
v -0.250000 0.500000 0.625000
v 0.250000 0.500000 0.625000
v -0.250000 0.500000 0.625000
v -0.250000 0.500000 0.562500
v 0.250000 0.500000 0.562500
v -0.250000 0.500000 0.562500
v -0.250000 0.437500 0.562500
v 0.250000 0.437500 0.562500
v 0.250000 0.500000 0.562500
v 0.250000 0.437500 0.625000
v 0.250000 0.500000 0.625000
v 0.250000 0.500000 0.562500
v 0.250000 0.437500 0.562500
v 0.250000 0.500000 0.625000
v 0.312500 0.500000 0.625000
v 0.312500 0.437500 0.625000
v 0.250000 0.437500 0.625000
v 0.312500 0.500000 0.625000
v 0.312500 0.500000 0.375000
v 0.312500 0.437500 0.375000
v 0.312500 0.437500 0.625000
v 0.250000 0.500000 0.375000
v 0.312500 0.500000 0.375000
v 0.312500 0.500000 0.625000
v 0.250000 0.500000 0.625000
v 0.250000 0.500000 0.375000
v 0.250000 0.500000 0.625000
v 0.250000 0.437500 0.625000
v 0.250000 0.437500 0.375000
v 0.250000 0.437500 0.625000
v 0.312500 0.437500 0.625000
v 0.312500 0.437500 0.375000
v 0.250000 0.437500 0.375000
v 0.312500 0.500000 0.375000
v 0.250000 0.500000 0.375000
v 0.250000 0.437500 0.375000
v 0.312500 0.437500 0.375000
v -0.250000 0.437500 0.625000
v -0.312500 0.437500 0.625000
v -0.312500 0.500000 0.625000
v -0.250000 0.500000 0.625000
v -0.312500 0.437500 0.625000
v -0.312500 0.437500 0.375000
v -0.312500 0.500000 0.375000
v -0.312500 0.500000 0.625000
v -0.250000 0.437500 0.375000
v -0.312500 0.437500 0.375000
v -0.312500 0.437500 0.625000
v -0.250000 0.437500 0.625000
v -0.250000 0.437500 0.375000
v -0.250000 0.437500 0.625000
v -0.250000 0.500000 0.625000
v -0.250000 0.500000 0.375000
v -0.250000 0.500000 0.625000
v -0.312500 0.500000 0.625000
v -0.312500 0.500000 0.375000
v -0.250000 0.500000 0.375000
v -0.312500 0.437500 0.375000
v -0.250000 0.437500 0.375000
v -0.250000 0.500000 0.375000
v -0.312500 0.500000 0.375000

vt 0.00000 0.93750
vt 0.00000 0.00000
vt 1.00000 0.00000
vt 1.00000 0.93750
vt 1.00000 0.12500
vt 0.00000 0.12500
vt 0.87500 0.93750
vt 0.87500 0.00000
vt 1.00000 0.81250
vt 0.00000 0.81250
vt 0.00000 0.25000
vt 1.00000 0.25000
vt 0.87500 0.25000
vt 1.00000 0.37500
vt 0.00000 0.37500
vt 0.00000 0.68750
vt 1.00000 0.68750
vt 0.12500 0.93750
vt 0.12500 0.25000
vt 0.18750 1.00000
vt 0.18750 0.93750
vt 0.75000 0.93750
vt 0.75000 1.00000
vt 0.21875 0.21875
vt 0.00000 0.43750
vt 0.78125 0.21875
vt 1.00000 0.43750
vt 0.12500 0.37500
vt 0.00000 0.18750
vt 0.75000 0.00000
vt 0.75000 0.18750
vt 0.00000 0.50000
vt 0.75000 0.50000
vt 0.75000 0.68750
vt 0.12500 0.18750
vt 0.12500 0.00000
vt 0.87500 0.18750
vt 0.12500 0.68750
vt 0.87500 0.68750
vt 0.87500 0.50000
vt 0.12500 0.50000
vt 0.87500 0.56250
vt 1.00000 0.56250
vt 0.18750 0.00000
vt 0.68750 0.00000
vt 0.68750 0.18750
vt 0.18750 0.18750
vt 0.68750 0.50000
vt 0.68750 0.68750
vt 0.18750 0.68750
vt 0.18750 0.50000
vt 0.37500 0.00000
vt 0.37500 0.18750
vt 0.37500 0.50000
vt 0.37500 0.68750

vn 0.00000 1.00000 0.00000
vn 0.00000 -1.00000 0.00000
vn 1.00000 0.00000 0.00000
vn 0.00000 0.00000 -1.00000
vn 0.00000 0.00000 1.00000
vn -1.00000 0.00000 0.00000

g Handcart
#_color 1 1 1 1

f 4/4/1 3/3/1 2/2/1 1/1/1
f 8/4/2 7/3/2 6/2/2 5/1/2
f 12/3/3 11/2/3 10/6/3 9/5/3
f 14/8/4 15/3/4 16/4/4 13/7/4
f 20/7/5 19/8/5 18/3/5 17/4/5
f 24/10/6 23/9/6 22/4/6 21/1/6
f 28/4/4 27/12/4 26/11/4 25/1/4
f 30/11/5 31/12/5 32/4/5 29/1/5
f 34/13/3 35/12/3 36/4/3 33/7/3
f 40/7/6 39/13/6 38/12/6 37/4/6
f 44/10/2 43/9/2 42/4/2 41/1/2
f 48/12/1 47/11/1 46/15/1 45/14/1
f 52/4/5 51/12/5 50/11/5 49/1/5
f 54/11/4 55/12/4 56/4/4 53/1/4
f 58/13/3 59/12/3 60/4/3 57/7/3
f 64/7/6 63/13/6 62/12/6 61/4/6
f 68/10/1 67/9/1 66/4/1 65/1/1
f 72/12/2 71/11/2 70/15/2 69/14/2
f 76/17/3 75/3/3 74/2/3 73/16/3
f 78/2/6 79/3/6 80/17/6 77/16/6
f 82/13/4 83/12/4 84/4/4 81/7/4
f 88/7/5 87/13/5 86/12/5 85/4/5
f 92/10/1 91/9/1 90/4/1 89/1/1
f 96/12/2 95/11/2 94/15/2 93/14/2
f 100/17/6 99/3/6 98/2/6 97/16/6
f 102/2/3 103/3/3 104/17/3 101/16/3
f 108/10/2 107/9/2 106/4/2 105/1/2
f 112/12/1 111/11/1 110/15/1 109/14/1
f 116/1/5 115/11/5 114/19/5 113/18/5
f 118/11/4 119/19/4 120/18/4 117/1/4
f 122/23/4 123/22/4 124/21/4 121/20/4
f 128/20/5 127/23/5 126/22/5 125/21/5
f 132/22/1 131/21/1 130/20/1 129/23/1
f 136/20/2 135/23/2 134/22/2 133/21/2
f 139/2/6 138/25/6 141/24/6
f 138/25/6 137/2/6 141/24/6
f 137/2/6 140/25/6 141/24/6
f 140/25/6 139/2/6 141/24/6
f 143/27/3 144/3/3 146/26/3
f 142/3/3 143/27/3 146/26/3
f 145/27/3 142/3/3 146/26/3
f 144/3/3 145/27/3 146/26/3
f 147/20/4 150/21/4 149/22/4 148/23/4
f 151/21/5 152/22/5 153/23/5 154/20/5
f 155/23/1 156/20/1 157/21/1 158/22/1
f 159/21/2 160/22/2 161/23/2 162/20/2
f 167/24/3 164/25/3 165/2/3
f 167/24/3 163/2/3 164/25/3
f 167/24/3 166/25/3 163/2/3
f 167/24/3 165/2/3 166/25/3
f 172/26/6 170/3/6 169/27/6
f 172/26/6 169/27/6 168/3/6
f 172/26/6 168/3/6 171/27/6
f 172/26/6 171/27/6 170/3/6
f 175/28/6 174/19/6 173/11/6 176/15/6
f 179/31/2 178/30/2 177/2/2 180/29/2
f 183/16/5 182/34/5 181/33/5 184/32/5
f 187/37/1 186/8/1 185/36/1 188/35/1
f 191/41/4 190/40/4 189/39/4 192/38/4
f 195/17/3 194/43/3 193/42/3 196/39/3
f 200/15/5 199/28/5 198/19/5 197/11/5
f 204/47/3 203/46/3 202/45/3 201/44/3
f 208/51/1 207/50/1 206/49/1 205/48/1
f 212/53/6 211/37/6 210/8/6 209/52/6
f 216/55/2 215/54/2 214/40/2 213/39/2
f 220/39/4 219/17/4 218/43/4 217/42/4
f 223/28/5 222/19/5 221/11/5 224/15/5
f 227/46/6 226/45/6 225/44/6 228/47/6
f 231/50/2 230/49/2 229/48/2 232/51/2
f 235/37/3 234/8/3 233/52/3 236/53/3
f 239/54/1 238/40/1 237/39/1 240/55/1
f 243/17/4 242/43/4 241/42/4 244/39/4

